<svg width="512" height="512" viewBox="0 0 512 512" xmlns="http://www.w3.org/2000/svg" role="img" aria-label="ChangeIt icon">
  <g fill="#050608">
    <path d="M64 80c0-17.673 14.327-32 32-32h176c26.51 0 48 21.49 48 48 0 26.51-21.49 48-48 48H160l-60.686 0C81.908 144 64 126.092 64 104V80z" />
    <path d="M80 192c0-17.673 14.327-32 32-32h48c26.51 0 48 21.49 48 48 0 8.837-2.386 17.102-6.543 24.2L121.6 432.8C112.8 448 96.96 458 80 458 56.385 458 37 438.615 37 415c0-6.692 1.684-13.267 4.89-19.14L80 329.6V192z" />
    <path d="M448 432c0 17.673-14.327 32-32 32H240c-26.51 0-48-21.49-48-48 0-26.51 21.49-48 48-48h112l60.686 0C430.092 368 448 385.908 448 408v24z" />
    <path d="M432 320c0 17.673-14.327 32-32 32h-48c-26.51 0-48-21.49-48-48 0-8.837 2.386-17.102 6.543-24.2L390.4 79.2C399.2 64 415.04 54 432 54c23.615 0 43 19.385 43 43 0 6.692-1.684 13.267-4.89 19.14L432 182.4V320z" />
  </g>
</svg>


